#N canvas 746 177 615 416 10;
#N canvas 1912 172 1440 817 wrap 1;
#X obj 396 520 onebeat 63 5 0 0.65;
#X obj 573 520 murmur 0.3 50 0.5;
#X obj 713 521 onebeat 42 3 0.5 1;
#X obj 557 712 dac~;
#X obj 559 587 *~ 1;
#X obj 486 485 bng 15 250 50 0 empty empty empty 17 7 0 10 -262144
-1 -1;
#X obj 576 471 bng 15 250 50 0 empty empty empty 17 7 0 10 -262144
-1 -1;
#X msg 128 515 \$1 50;
#X obj 128 593 line~;
#X msg 172 516 \$1 50;
#X obj 172 567 line~;
#X obj 560 639 *~;
#X obj 560 685 clip~ -1 1;
#X obj 560 663 hip~ 5;
#X obj 560 613 *~;
#X obj 484 350 bng 15 250 50 0 empty empty empty 17 7 0 10 -262144
-1 -1;
#X obj 484 370 t b b;
#X obj 542 418 delay 100;
#X floatatom 635 250 5 0 0 1 ms - -;
#X obj 635 316 / 100;
#X floatatom 635 360 5 0 0 1 - - -;
#X obj 635 294 line;
#X obj 105 115 vsl 15 128 0 1 0 0 empty empty volume 0 -9 0 10 -262144
-1 -1 12700 1;
#X obj 126 230 tgl 15 0 empty empty enable 17 7 0 10 -262144 -1 -1
1 1;
#X obj 602 222 SuperTap1;
#X obj 553 181 t b b;
#X msg 635 271 \$1 2000;
#X obj 553 142 r net-bang;
#X text 131 162 Beat A;
#X obj 635 381 min 600;
#X obj 635 338 * 35;
#X connect 0 0 4 0;
#X connect 1 0 4 0;
#X connect 2 0 4 0;
#X connect 4 0 14 0;
#X connect 5 0 0 0;
#X connect 5 0 1 0;
#X connect 6 0 2 0;
#X connect 6 0 1 0;
#X connect 7 0 8 0;
#X connect 8 0 11 1;
#X connect 9 0 10 0;
#X connect 10 0 14 1;
#X connect 11 0 13 0;
#X connect 12 0 3 0;
#X connect 12 0 3 1;
#X connect 13 0 12 0;
#X connect 14 0 11 0;
#X connect 15 0 16 0;
#X connect 16 0 5 0;
#X connect 16 1 17 0;
#X connect 17 0 6 0;
#X connect 18 0 26 0;
#X connect 19 0 30 0;
#X connect 20 0 29 0;
#X connect 21 0 19 0;
#X connect 22 0 7 0;
#X connect 23 0 9 0;
#X connect 24 1 18 0;
#X connect 25 0 15 0;
#X connect 25 1 24 0;
#X connect 26 0 21 0;
#X connect 27 0 25 0;
#X connect 29 0 17 1;
#X connect 29 0 1 1;
#X connect 30 0 20 0;
#X coords 0 -1 1 1 85 150 2 100 100;
#X restore 22 168 pd wrap;
#N canvas 232 99 1436 814 wrap 1;
#X obj 551 741 dac~;
#X obj 553 616 *~ 1;
#X msg 123 521 \$1 50;
#X obj 123 599 line~;
#X msg 167 522 \$1 50;
#X obj 167 573 line~;
#X obj 554 668 *~;
#X obj 554 714 clip~ -1 1;
#X obj 554 692 hip~ 5;
#X obj 554 642 *~;
#X floatatom 623 197 5 0 0 1 ms - -;
#X floatatom 623 264 5 0 0 1 - - -;
#X obj 623 241 line;
#X obj 105 115 vsl 15 128 0 1 0 0 empty empty volume 0 -9 0 10 -262144
-1 -1 12700 1;
#X obj 126 230 tgl 15 0 empty empty enable 17 7 0 10 -262144 -1 -1
0 1;
#X obj 598 170 SuperTap1;
#X obj 544 129 t b b;
#X msg 623 218 \$1 2000;
#X obj 544 90 r net-bang;
#X text 131 162 Beat B;
#X floatatom 405 457 5 0 0 0 - - -;
#X floatatom 731 457 5 0 0 0 - - -;
#X floatatom 898 457 5 0 0 0 - - -;
#X obj 503 500 QRSwave 100;
#X floatatom 584 457 5 0 0 0 - - -;
#X floatatom 542 457 5 0 0 0 - - -;
#X floatatom 689 457 5 0 0 0 - - -;
#X floatatom 857 457 5 0 0 0 - - -;
#N canvas 175 79 690 315 tempi_variabili 0;
#X obj 291 9 loadbang;
#X msg 17 142 60;
#X obj 17 205 *;
#X obj 17 226 / 1500;
#X floatatom 17 248 5 0 0 0 - - -;
#X obj 30 172 t b f;
#X obj 79 205 *;
#X obj 79 226 / 1500;
#X floatatom 79 248 5 0 0 0 - - -;
#X obj 92 172 t b f;
#X obj 184 205 *;
#X obj 184 226 / 1500;
#X floatatom 184 248 5 0 0 0 - - -;
#X obj 197 172 t b f;
#X obj 257 205 *;
#X obj 257 226 / 1500;
#X floatatom 257 248 5 0 0 0 - - -;
#X obj 270 172 t b f;
#X obj 361 204 *;
#X obj 361 226 / 1500;
#X floatatom 361 248 5 0 0 0 - - -;
#X obj 374 172 t b f;
#X obj 425 205 *;
#X obj 425 226 / 1500;
#X floatatom 425 248 5 0 0 0 - - -;
#X obj 438 172 t b f;
#X obj 518 205 *;
#X obj 518 226 / 1500;
#X floatatom 518 248 5 0 0 0 - - -;
#X obj 531 172 t b f;
#X msg 79 142 100;
#X msg 184 142 100;
#X msg 257 142 260;
#X msg 361 142 160;
#X msg 425 142 460;
#X msg 518 142 40;
#X obj 17 269 outlet P;
#X obj 184 269 outlet QRS;
#X obj 79 269 outlet pausa_AV;
#X obj 257 269 outlet pausa_ST;
#X obj 361 269 outlet T;
#X obj 425 269 outlet pausa_;
#X obj 518 269 outlet U;
#X obj 579 15 inlet ms;
#X obj 579 155 t f f f f f f f;
#X connect 0 0 1 0;
#X connect 0 0 30 0;
#X connect 0 0 31 0;
#X connect 0 0 32 0;
#X connect 0 0 33 0;
#X connect 0 0 34 0;
#X connect 0 0 35 0;
#X connect 1 0 2 0;
#X connect 2 0 3 0;
#X connect 3 0 4 0;
#X connect 4 0 36 0;
#X connect 5 0 2 0;
#X connect 5 1 2 1;
#X connect 6 0 7 0;
#X connect 7 0 8 0;
#X connect 8 0 38 0;
#X connect 9 0 6 0;
#X connect 9 1 6 1;
#X connect 10 0 11 0;
#X connect 11 0 12 0;
#X connect 12 0 37 0;
#X connect 13 0 10 0;
#X connect 13 1 10 1;
#X connect 14 0 15 0;
#X connect 15 0 16 0;
#X connect 16 0 39 0;
#X connect 17 0 14 0;
#X connect 17 1 14 1;
#X connect 18 0 19 0;
#X connect 19 0 20 0;
#X connect 20 0 40 0;
#X connect 21 0 18 0;
#X connect 21 1 18 1;
#X connect 22 0 23 0;
#X connect 23 0 24 0;
#X connect 24 0 41 0;
#X connect 25 0 22 0;
#X connect 25 1 22 1;
#X connect 26 0 27 0;
#X connect 27 0 28 0;
#X connect 28 0 42 0;
#X connect 29 0 26 0;
#X connect 29 1 26 1;
#X connect 30 0 6 0;
#X connect 31 0 10 0;
#X connect 32 0 14 0;
#X connect 33 0 18 0;
#X connect 34 0 22 0;
#X connect 35 0 26 0;
#X connect 43 0 44 0;
#X connect 44 0 5 0;
#X connect 44 1 9 0;
#X connect 44 2 13 0;
#X connect 44 3 17 0;
#X connect 44 4 21 0;
#X connect 44 5 25 0;
#X connect 44 6 29 0;
#X restore 623 358 pd tempi_variabili;
#X obj 350 425 r \$0-A;
#X obj 503 425 r \$0-B;
#X obj 650 425 r \$0-C;
#X obj 818 425 r \$0-D;
#X obj 503 478 del 100;
#X obj 650 478 del 260;
#X obj 818 478 del 460;
#X obj 350 500 PTUcurves 60 0.2222;
#X obj 650 500 PTUcurves 160 0.24444;
#X obj 818 500 PTUcurves 40 0.04444;
#X obj 454 253 t b b b b;
#X obj 505 282 s \$0-A;
#X obj 488 304 s \$0-B;
#X obj 471 326 s \$0-C;
#X obj 454 351 s \$0-D;
#X obj 623 285 min 1000;
#X connect 1 0 9 0;
#X connect 2 0 3 0;
#X connect 3 0 6 1;
#X connect 4 0 5 0;
#X connect 5 0 9 1;
#X connect 6 0 8 0;
#X connect 7 0 0 0;
#X connect 7 0 0 1;
#X connect 8 0 7 0;
#X connect 9 0 6 0;
#X connect 10 0 17 0;
#X connect 11 0 44 0;
#X connect 12 0 11 0;
#X connect 13 0 2 0;
#X connect 14 0 4 0;
#X connect 15 1 10 0;
#X connect 16 0 39 0;
#X connect 16 1 15 0;
#X connect 17 0 12 0;
#X connect 18 0 16 0;
#X connect 20 0 36 1;
#X connect 21 0 37 1;
#X connect 22 0 38 1;
#X connect 23 0 1 0;
#X connect 24 0 23 1;
#X connect 25 0 33 1;
#X connect 26 0 34 1;
#X connect 27 0 35 1;
#X connect 28 0 20 0;
#X connect 28 1 25 0;
#X connect 28 2 24 0;
#X connect 28 3 26 0;
#X connect 28 4 21 0;
#X connect 28 5 27 0;
#X connect 28 6 22 0;
#X connect 29 0 36 0;
#X connect 30 0 33 0;
#X connect 31 0 34 0;
#X connect 32 0 35 0;
#X connect 33 0 23 0;
#X connect 34 0 37 0;
#X connect 35 0 38 0;
#X connect 36 0 1 0;
#X connect 37 0 1 0;
#X connect 38 0 1 0;
#X connect 39 0 43 0;
#X connect 39 1 42 0;
#X connect 39 2 41 0;
#X connect 39 3 40 0;
#X connect 44 0 28 0;
#X coords 0 -1 1 1 85 150 2 100 100;
#X restore 118 168 pd wrap;
#N canvas 0 50 1257 680 graph 0;
#N canvas 751 102 989 843 (subpatch) 0;
#X array history 150 float 0;
#X coords 0 1 149 -1 300 140 1 0 0;
#X restore 100 99 graph;
#N canvas 417 340 450 300 push 0;
#X obj 173 10 inlet;
#X obj 205 125 array set history;
#X obj 254 58 loadbang;
#X obj 254 79 array size history;
#X obj 254 100 - 1;
#X obj 174 34 t f b;
#N canvas 2445 359 450 300 shift 0;
#X obj 65 101 spigot;
#X obj 65 135 i;
#X obj 69 48 t f f;
#X obj 114 11 loadbang;
#X obj 114 32 array size history;
#X obj 147 55 inlet;
#X obj 141 168 loadbang;
#X obj 92 212 array get history;
#X obj 65 184 + 1;
#X obj 64 161 t f f;
#X obj 92 250 array set history;
#X msg 141 189 1;
#X obj 147 76 bang;
#X obj 34 59 + 1;
#X msg 147 97 0;
#X obj 99 74 !=;
#X connect 0 0 1 0;
#X connect 1 0 9 0;
#X connect 1 0 13 0;
#X connect 2 0 0 0;
#X connect 2 1 15 0;
#X connect 3 0 4 0;
#X connect 4 0 15 1;
#X connect 5 0 12 0;
#X connect 6 0 11 0;
#X connect 7 0 10 0;
#X connect 8 0 7 0;
#X connect 9 0 8 0;
#X connect 9 1 10 1;
#X connect 11 0 7 1;
#X connect 12 0 14 0;
#X connect 13 0 2 0;
#X connect 14 0 1 0;
#X connect 15 0 0 1;
#X restore 141 100 pd shift;
#X obj 205 62 / 255;
#X obj 205 83 * 2;
#X obj 205 104 - 1;
#X connect 0 0 5 0;
#X connect 2 0 3 0;
#X connect 3 0 4 0;
#X connect 4 0 1 1;
#X connect 5 0 7 0;
#X connect 5 1 6 0;
#X connect 7 0 8 0;
#X connect 8 0 9 0;
#X connect 9 0 1 0;
#X restore 425 172 pd push;
#X obj 425 145 netreceive -u -b 3345;
#X connect 2 0 1 0;
#X coords 0 -1 1 1 300 140 1 100 100;
#X restore 121 14 pd graph;
#N canvas 2023 297 450 534 beat 0;
#X obj 19 19 netreceive -u -b 3344;
#X obj 19 40 bang;
#X obj 19 163 s net-bang;
#X obj 103 54 SuperTap1;
#X obj 152 75 i;
#X obj 109 120 bng 15 250 50 0 empty empty beat 17 7 0 10 -262144 -1
-1;
#X floatatom 109 140 5 0 0 1 bpm - -;
#X connect 0 0 1 0;
#X connect 1 0 3 0;
#X connect 1 0 5 0;
#X connect 3 2 4 0;
#X connect 4 0 6 0;
#X connect 5 0 2 0;
#X coords 0 -1 1 1 85 60 1 100 100;
#X restore 24 56 pd beat;
